<svg width="161" height="38" viewBox="0 0 161 38" fill="none" xmlns="http://www.w3.org/2000/svg">
<path d="M48.675 28.3C47.3917 28.3 46.2583 28.0833 45.275 27.65C44.2917 27.2 43.5167 26.5667 42.95 25.75C42.3833 24.9167 42.0917 23.9083 42.075 22.725H45.45C45.4833 23.5417 45.775 24.2333 46.325 24.8C46.8917 25.35 47.6667 25.625 48.65 25.625C49.5 25.625 50.175 25.425 50.675 25.025C51.175 24.6083 51.425 24.0583 51.425 23.375C51.425 22.6583 51.2 22.1 50.75 21.7C50.3167 21.3 49.7333 20.975 49 20.725C48.2667 20.475 47.4833 20.2083 46.65 19.925C45.3 19.4583 44.2667 18.8583 43.55 18.125C42.85 17.3917 42.5 16.4167 42.5 15.2C42.4833 14.1667 42.725 13.2833 43.225 12.55C43.7417 11.8 44.4417 11.225 45.325 10.825C46.2083 10.4083 47.225 10.2 48.375 10.2C49.5417 10.2 50.5667 10.4083 51.45 10.825C52.35 11.2417 53.05 11.825 53.55 12.575C54.0667 13.325 54.3417 14.2167 54.375 15.25H50.95C50.9333 14.6333 50.6917 14.0917 50.225 13.625C49.775 13.1417 49.1417 12.9 48.325 12.9C47.625 12.8833 47.0333 13.0583 46.55 13.425C46.0833 13.775 45.85 14.2917 45.85 14.975C45.85 15.5583 46.0333 16.025 46.4 16.375C46.7667 16.7083 47.2667 16.9917 47.9 17.225C48.5333 17.4583 49.2583 17.7083 50.075 17.975C50.9417 18.275 51.7333 18.625 52.45 19.025C53.1667 19.425 53.7417 19.9583 54.175 20.625C54.6083 21.275 54.825 22.1167 54.825 23.15C54.825 24.0667 54.5917 24.9167 54.125 25.7C53.6583 26.4833 52.9667 27.1167 52.05 27.6C51.1333 28.0667 50.0083 28.3 48.675 28.3ZM62.067 28C60.767 28 59.7253 27.6833 58.942 27.05C58.1587 26.4167 57.767 25.2917 57.767 23.675V18.275H55.642V15.6H57.767L58.142 12.275H60.967V15.6H64.317V18.275H60.967V23.7C60.967 24.3 61.092 24.7167 61.342 24.95C61.6087 25.1667 62.0587 25.275 62.692 25.275H64.242V28H62.067ZM71.6971 28.3C70.4971 28.3 69.4137 28.025 68.4471 27.475C67.4971 26.925 66.7387 26.1667 66.1721 25.2C65.6221 24.2167 65.3471 23.0833 65.3471 21.8C65.3471 20.5167 65.6304 19.3917 66.1971 18.425C66.7637 17.4417 67.5221 16.675 68.4721 16.125C69.4387 15.575 70.5221 15.3 71.7221 15.3C72.9054 15.3 73.9721 15.575 74.9221 16.125C75.8887 16.675 76.6471 17.4417 77.1971 18.425C77.7637 19.3917 78.0471 20.5167 78.0471 21.8C78.0471 23.0833 77.7637 24.2167 77.1971 25.2C76.6471 26.1667 75.8887 26.925 74.9221 27.475C73.9554 28.025 72.8804 28.3 71.6971 28.3ZM71.6971 25.525C72.5304 25.525 73.2554 25.2167 73.8721 24.6C74.4887 23.9667 74.7971 23.0333 74.7971 21.8C74.7971 20.5667 74.4887 19.6417 73.8721 19.025C73.2554 18.3917 72.5387 18.075 71.7221 18.075C70.8721 18.075 70.1387 18.3917 69.5221 19.025C68.9221 19.6417 68.6221 20.5667 68.6221 21.8C68.6221 23.0333 68.9221 23.9667 69.5221 24.6C70.1387 25.2167 70.8637 25.525 71.6971 25.525ZM85.9832 28.3C84.7165 28.3 83.5999 28.025 82.6332 27.475C81.6665 26.925 80.8999 26.1583 80.3332 25.175C79.7832 24.1917 79.5082 23.0667 79.5082 21.8C79.5082 20.5333 79.7832 19.4083 80.3332 18.425C80.8999 17.4417 81.6665 16.675 82.6332 16.125C83.5999 15.575 84.7165 15.3 85.9832 15.3C87.5665 15.3 88.8999 15.7167 89.9832 16.55C91.0665 17.3667 91.7582 18.5 92.0582 19.95H88.6832C88.5165 19.35 88.1832 18.8833 87.6832 18.55C87.1999 18.2 86.6249 18.025 85.9582 18.025C85.0749 18.025 84.3249 18.3583 83.7082 19.025C83.0915 19.6917 82.7832 20.6167 82.7832 21.8C82.7832 22.9833 83.0915 23.9083 83.7082 24.575C84.3249 25.2417 85.0749 25.575 85.9582 25.575C86.6249 25.575 87.1999 25.4083 87.6832 25.075C88.1832 24.7417 88.5165 24.2667 88.6832 23.65H92.0582C91.7582 25.05 91.0665 26.175 89.9832 27.025C88.8999 27.875 87.5665 28.3 85.9832 28.3ZM93.8984 28V10H97.0984V20.625L101.498 15.6H105.298L100.223 21.25L106.123 28H102.123L97.0984 21.775V28H93.8984ZM107.107 28V15.6H109.932L110.207 17.275C110.607 16.675 111.132 16.2 111.782 15.85C112.449 15.4833 113.216 15.3 114.082 15.3C115.999 15.3 117.357 16.0417 118.157 17.525C118.607 16.8417 119.207 16.3 119.957 15.9C120.724 15.5 121.557 15.3 122.457 15.3C124.074 15.3 125.316 15.7833 126.182 16.75C127.049 17.7167 127.482 19.1333 127.482 21V28H124.282V21.3C124.282 20.2333 124.074 19.4167 123.657 18.85C123.257 18.2833 122.632 18 121.782 18C120.916 18 120.216 18.3167 119.682 18.95C119.166 19.5833 118.907 20.4667 118.907 21.6V28H115.707V21.3C115.707 20.2333 115.499 19.4167 115.082 18.85C114.666 18.2833 114.024 18 113.157 18C112.307 18 111.616 18.3167 111.082 18.95C110.566 19.5833 110.307 20.4667 110.307 21.6V28H107.107ZM133.796 28.3C132.729 28.3 131.854 28.1333 131.171 27.8C130.487 27.45 129.979 26.9917 129.646 26.425C129.312 25.8583 129.146 25.2333 129.146 24.55C129.146 23.4 129.596 22.4667 130.496 21.75C131.396 21.0333 132.746 20.675 134.546 20.675H137.696V20.375C137.696 19.525 137.454 18.9 136.971 18.5C136.487 18.1 135.887 17.9 135.171 17.9C134.521 17.9 133.954 18.0583 133.471 18.375C132.987 18.675 132.687 19.125 132.571 19.725H129.446C129.529 18.825 129.829 18.0417 130.346 17.375C130.879 16.7083 131.562 16.2 132.396 15.85C133.229 15.4833 134.162 15.3 135.196 15.3C136.962 15.3 138.354 15.7417 139.371 16.625C140.387 17.5083 140.896 18.7583 140.896 20.375V28H138.171L137.871 26C137.504 26.6667 136.987 27.2167 136.321 27.65C135.671 28.0833 134.829 28.3 133.796 28.3ZM134.521 25.8C135.437 25.8 136.146 25.5 136.646 24.9C137.162 24.3 137.487 23.5583 137.621 22.675H134.896C134.046 22.675 133.437 22.8333 133.071 23.15C132.704 23.45 132.521 23.825 132.521 24.275C132.521 24.7583 132.704 25.1333 133.071 25.4C133.437 25.6667 133.921 25.8 134.521 25.8ZM142.949 28V15.6H145.799L146.099 17.925C146.549 17.125 147.158 16.4917 147.924 16.025C148.708 15.5417 149.624 15.3 150.674 15.3V18.675H149.774C149.074 18.675 148.449 18.7833 147.899 19C147.349 19.2167 146.916 19.5917 146.599 20.125C146.299 20.6583 146.149 21.4 146.149 22.35V28H142.949ZM157.386 28C156.086 28 155.045 27.6833 154.261 27.05C153.478 26.4167 153.086 25.2917 153.086 23.675V18.275H150.961V15.6H153.086L153.461 12.275H156.286V15.6H159.636V18.275H156.286V23.7C156.286 24.3 156.411 24.7167 156.661 24.95C156.928 25.1667 157.378 25.275 158.011 25.275H159.561V28H157.386Z" fill="#040404"/>
<rect y="2" width="33.8478" height="34.5629" rx="5.70058" fill="#3565E0"/>
<path d="M16.7119 8.7123C17.8135 7.58749 19.5994 7.58749 20.7009 8.7123C21.8025 9.8371 21.8025 11.6608 20.7009 12.7856L13.7202 19.9138C12.6186 21.0386 10.8327 21.0386 9.73116 19.9138C8.62963 18.789 8.62963 16.9653 9.73116 15.8405L16.7119 8.7123Z" fill="#F7F7F7"/>
<path opacity="0.5" d="M22.6759 17.8695C24.2081 18.2888 25.1233 19.8742 24.7201 21.4107C24.3169 22.9472 22.7479 23.8529 21.2157 23.4337L11.0612 20.6551C9.52901 20.2359 8.61378 18.6504 9.01699 17.1139C9.42021 15.5774 10.9892 14.6717 12.5214 15.0909L22.6759 17.8695Z" fill="#F7F7F7"/>
<path d="M20.1276 18.6491C21.2291 17.5243 23.015 17.5243 24.1166 18.6491C25.2181 19.7739 25.2181 21.5976 24.1166 22.7224L17.1358 29.8506C16.0343 30.9754 14.2483 30.9754 13.1468 29.8506C12.0453 28.7258 12.0453 26.9021 13.1468 25.7773L20.1276 18.6491Z" fill="#F7F7F7"/>
</svg>
